<svg xmlns="http://www.w3.org/2000/svg" xmlns:xlink="http://www.w3.org/1999/xlink" width="50" height="50" viewBox="0 0 50 50"><circle fill="#B0BEC5" cx="24.9" cy="25" r="24"/><defs><path id="a" d="M12.6 13h24v24h-24z"/></defs><clipPath id="b"><use xlink:href="#a" overflow="visible"/></clipPath><path clip-path="url(#b)" fill="#FFF" d="M31.6 28h-2v-2h2v2zm0 4h-2v-2h2v2zm-6-12h-2v-2h2v2zm0 4h-2v-2h2v2zm0 4h-2v-2h2v2zm0 4h-2v-2h2v2zm-6-8h-2v-2h2v2zm0 4h-2v-2h2v2zm0 4h-2v-2h2v2zm8-8v-6l-3-3-3 3v2h-6v14h18V24h-6z"/></svg>